<svg width="34" height="27" viewBox="0 0 34 27" fill="none" xmlns="http://www.w3.org/2000/svg">
<path d="M9.89997 18.2712C10.3402 18.2657 26.2087 18.2712 26.2087 18.2712C27.0545 18.274 27.8788 18.0049 28.5601 17.5037C29.2415 17.0025 29.7439 16.2956 29.9932 15.4872L33.2637 5.01983C33.3009 4.90109 33.3097 4.77524 33.2892 4.65247C33.2688 4.52971 33.2198 4.41348 33.1461 4.3132C33.0724 4.21292 32.9761 4.13141 32.8651 4.07526C32.7541 4.0191 32.6314 3.9899 32.5069 3.99H6.93727C6.12104 1.38129 3.49943 -0.212656 0.777868 0.0229843C-0.25174 0.0340919 -0.266811 1.59947 0.777868 1.60979H1.49257C2.44682 1.61197 3.37119 1.94295 4.11004 2.54699C4.8489 3.15104 5.35711 3.99126 5.54913 4.92621L6.78259 14.7961C6.90711 15.7799 7.39661 16.681 8.15408 17.3207C6.38915 18.6552 7.05467 21.6559 9.2059 22.1399C7.85028 24.1377 9.44704 27.0717 11.883 26.9987C14.2675 27.0637 15.8801 24.2471 14.6141 22.2382H25.0157C23.7473 24.244 25.3647 27.0669 27.7476 26.9987C29.4974 26.9987 30.9205 25.5753 30.9205 23.8251C30.9205 22.0748 29.4974 20.6514 27.7476 20.6514H9.89997C8.33811 20.6221 8.33414 18.3006 9.89997 18.2712ZM7.22918 5.5768H31.4281L28.4797 15.0143C28.3299 15.4992 28.0284 15.9232 27.6195 16.2239C27.2107 16.5246 26.7162 16.686 26.2087 16.6844H10.7186C9.52081 16.6844 8.50548 15.7879 8.35715 14.5994L7.22918 5.5768ZM13.4695 23.8251C13.4322 25.9101 10.3331 25.9101 10.2966 23.8251C10.3339 21.74 13.433 21.74 13.4695 23.8251ZM29.334 23.8251C29.2967 25.9101 26.1984 25.9101 26.1611 23.8251C26.1984 21.74 29.2967 21.74 29.334 23.8251Z" fill="#E8EDFF"/>
</svg>
