<svg width="180" height="260" viewBox="0 0 180 260" fill="none" xmlns="http://www.w3.org/2000/svg">
<rect width="180" height="260" fill="#E9663D"/>
<path d="M55.4827 73H53.4307L47.9947 66.952V73H46.3207V60.4H47.9947V66.088L53.2507 60.4H55.3027L49.7407 66.52L55.4827 73ZM64.317 64V73H62.751V65.512H59.205V69.184C59.205 70.66 58.905 71.692 58.305 72.28C57.717 72.856 56.883 73.096 55.803 73V71.524C56.415 71.608 56.871 71.476 57.171 71.128C57.483 70.768 57.639 70.108 57.639 69.148V64H64.317ZM73.224 64H74.484V73H72.936V66.682L67.95 73H66.69V64H68.238V70.318L73.224 64ZM84.4817 73H82.5377L78.4337 68.734V73H76.8677V64H78.4337V67.978L82.3217 64H84.3377L80.0357 68.356L84.4817 73ZM92.166 64H93.732V73H92.166V69.238H87.504V73H85.938V64H87.504V67.744H92.166V64ZM102.65 64H103.91V73H102.362V66.682L97.3757 73H96.1157V64H97.6637V70.318L102.65 64ZM112.989 64V65.512H109.929V73H108.363V65.512H105.285V64H112.989ZM115.108 69.22C115.264 70.024 115.63 70.648 116.206 71.092C116.794 71.536 117.514 71.758 118.366 71.758C119.554 71.758 120.418 71.32 120.958 70.444L122.29 71.2C121.414 72.556 120.094 73.234 118.33 73.234C116.902 73.234 115.738 72.79 114.838 71.902C113.95 71.002 113.506 69.868 113.506 68.5C113.506 67.144 113.944 66.016 114.82 65.116C115.696 64.216 116.83 63.766 118.222 63.766C119.542 63.766 120.616 64.234 121.444 65.17C122.284 66.094 122.704 67.21 122.704 68.518C122.704 68.746 122.686 68.98 122.65 69.22H115.108ZM118.222 65.242C117.382 65.242 116.686 65.482 116.134 65.962C115.582 66.43 115.24 67.06 115.108 67.852H121.12C120.988 67 120.652 66.352 120.112 65.908C119.572 65.464 118.942 65.242 118.222 65.242ZM27.4258 82H28.9918V91H27.4258V87.238H22.7638V91H21.1978V82H22.7638V85.744H27.4258V82ZM38.8275 82H40.3935V91H38.8275V89.452C38.0475 90.64 36.9135 91.234 35.4255 91.234C34.1655 91.234 33.0915 90.778 32.2035 89.866C31.3155 88.942 30.8715 87.82 30.8715 86.5C30.8715 85.18 31.3155 84.064 32.2035 83.152C33.0915 82.228 34.1655 81.766 35.4255 81.766C36.9135 81.766 38.0475 82.36 38.8275 83.548V82ZM35.6235 89.722C36.5355 89.722 37.2975 89.416 37.9095 88.804C38.5215 88.18 38.8275 87.412 38.8275 86.5C38.8275 85.588 38.5215 84.826 37.9095 84.214C37.2975 83.59 36.5355 83.278 35.6235 83.278C34.7235 83.278 33.9675 83.59 33.3555 84.214C32.7435 84.826 32.4375 85.588 32.4375 86.5C32.4375 87.412 32.7435 88.18 33.3555 88.804C33.9675 89.416 34.7235 89.722 35.6235 89.722ZM54.8621 89.866C53.9381 90.778 52.8161 91.234 51.4961 91.234C50.1761 91.234 49.0541 90.778 48.1301 89.866C47.2181 88.954 46.7621 87.832 46.7621 86.5C46.7621 85.168 47.2181 84.046 48.1301 83.134C49.0541 82.222 50.1761 81.766 51.4961 81.766C52.8161 81.766 53.9381 82.222 54.8621 83.134C55.7861 84.046 56.2481 85.168 56.2481 86.5C56.2481 87.832 55.7861 88.954 54.8621 89.866ZM51.4961 89.704C52.3961 89.704 53.1521 89.398 53.7641 88.786C54.3761 88.174 54.6821 87.412 54.6821 86.5C54.6821 85.588 54.3761 84.826 53.7641 84.214C53.1521 83.602 52.3961 83.296 51.4961 83.296C50.6081 83.296 49.8581 83.602 49.2461 84.214C48.6341 84.826 48.3281 85.588 48.3281 86.5C48.3281 87.412 48.6341 88.174 49.2461 88.786C49.8581 89.398 50.6081 89.704 51.4961 89.704ZM64.4387 82V83.512H61.3787V91H59.8127V83.512H56.7347V82H64.4387ZM70.3546 86.392C71.3506 86.8 71.8486 87.514 71.8486 88.534C71.8486 89.29 71.5486 89.932 70.9486 90.46C70.3486 90.976 69.4966 91.234 68.3926 91.234C66.5926 91.234 65.3866 90.514 64.7746 89.074L66.0886 88.3C66.4366 89.284 67.2106 89.776 68.4106 89.776C69.0106 89.776 69.4726 89.65 69.7966 89.398C70.1326 89.134 70.3006 88.798 70.3006 88.39C70.3006 88.03 70.1626 87.736 69.8866 87.508C69.6226 87.28 69.2626 87.166 68.8066 87.166H67.4926V85.744H68.4646C68.9206 85.744 69.2746 85.636 69.5266 85.42C69.7786 85.192 69.9046 84.886 69.9046 84.502C69.9046 84.118 69.7546 83.806 69.4546 83.566C69.1666 83.326 68.7646 83.206 68.2486 83.206C67.2406 83.206 66.5566 83.632 66.1966 84.484L64.9186 83.746C65.5546 82.426 66.6646 81.766 68.2486 81.766C69.2326 81.766 70.0066 82.018 70.5706 82.522C71.1466 83.026 71.4346 83.644 71.4346 84.376C71.4346 85.288 71.0746 85.96 70.3546 86.392ZM77.3434 85.24C78.2434 85.24 78.9874 85.51 79.5754 86.05C80.1754 86.578 80.4754 87.268 80.4754 88.12C80.4754 88.972 80.1754 89.668 79.5754 90.208C78.9874 90.736 78.2434 91 77.3434 91H73.5454V82H75.1114V85.24H77.3434ZM81.6454 82H83.2114V91H81.6454V82ZM77.3434 89.542C77.7874 89.542 78.1594 89.416 78.4594 89.164C78.7714 88.9 78.9274 88.552 78.9274 88.12C78.9274 87.688 78.7714 87.34 78.4594 87.076C78.1594 86.812 77.7874 86.68 77.3434 86.68H75.1114V89.542H77.3434ZM91.598 86.374C92.522 86.758 92.984 87.454 92.984 88.462C92.984 89.206 92.732 89.818 92.228 90.298C91.736 90.766 91.028 91 90.104 91H85.604V82H89.744C90.644 82 91.34 82.228 91.832 82.684C92.324 83.128 92.57 83.716 92.57 84.448C92.57 85.312 92.246 85.954 91.598 86.374ZM89.672 83.404H87.134V85.762H89.672C90.584 85.762 91.04 85.36 91.04 84.556C91.04 83.788 90.584 83.404 89.672 83.404ZM90.014 89.578C90.47 89.578 90.818 89.47 91.058 89.254C91.31 89.038 91.436 88.732 91.436 88.336C91.436 87.964 91.31 87.676 91.058 87.472C90.818 87.256 90.47 87.148 90.014 87.148H87.134V89.578H90.014ZM96.821 89.146L95.651 93.52H94.301L95.021 89.146H96.821ZM109.204 82H110.77V91H109.204V87.76C108.484 88.072 107.674 88.228 106.774 88.228C105.622 88.228 104.728 87.958 104.092 87.418C103.468 86.866 103.156 86.056 103.156 84.988V82H104.722V84.898C104.722 85.57 104.902 86.05 105.262 86.338C105.634 86.626 106.174 86.77 106.882 86.77C107.734 86.77 108.508 86.614 109.204 86.302V82ZM119.845 82V83.512H116.785V91H115.219V83.512H112.141V82H119.845ZM128.462 89.866C127.538 90.778 126.416 91.234 125.096 91.234C123.776 91.234 122.654 90.778 121.73 89.866C120.818 88.954 120.362 87.832 120.362 86.5C120.362 85.168 120.818 84.046 121.73 83.134C122.654 82.222 123.776 81.766 125.096 81.766C126.416 81.766 127.538 82.222 128.462 83.134C129.386 84.046 129.848 85.168 129.848 86.5C129.848 87.832 129.386 88.954 128.462 89.866ZM125.096 89.704C125.996 89.704 126.752 89.398 127.364 88.786C127.976 88.174 128.282 87.412 128.282 86.5C128.282 85.588 127.976 84.826 127.364 84.214C126.752 83.602 125.996 83.296 125.096 83.296C124.208 83.296 123.458 83.602 122.846 84.214C122.234 84.826 121.928 85.588 121.928 86.5C121.928 87.412 122.234 88.174 122.846 88.786C123.458 89.398 124.208 89.704 125.096 89.704ZM135.78 91.234C134.448 91.234 133.35 90.796 132.486 89.92C131.622 89.044 131.19 87.916 131.19 86.536C131.19 85 131.412 83.818 131.856 82.99C132.312 82.162 133.236 81.412 134.628 80.74C134.88 80.62 135.222 80.464 135.654 80.272C136.098 80.08 136.422 79.936 136.626 79.84C136.83 79.732 137.058 79.594 137.31 79.426C137.562 79.246 137.748 79.054 137.868 78.85C138 78.634 138.096 78.388 138.156 78.112L139.416 78.832C139.38 79.024 139.332 79.204 139.272 79.372C139.212 79.528 139.122 79.684 139.002 79.84C138.894 79.984 138.798 80.11 138.714 80.218C138.63 80.326 138.486 80.446 138.282 80.578C138.09 80.698 137.946 80.788 137.85 80.848C137.766 80.908 137.592 80.998 137.328 81.118C137.076 81.238 136.902 81.322 136.806 81.37C136.722 81.406 136.524 81.49 136.212 81.622C135.9 81.742 135.708 81.82 135.636 81.856C134.82 82.204 134.22 82.558 133.836 82.918C133.464 83.278 133.194 83.734 133.026 84.286C133.41 83.806 133.89 83.452 134.466 83.224C135.042 82.996 135.618 82.882 136.194 82.882C137.322 82.882 138.276 83.266 139.056 84.034C139.848 84.802 140.244 85.792 140.244 87.004C140.244 88.228 139.824 89.242 138.984 90.046C138.144 90.838 137.076 91.234 135.78 91.234ZM133.674 88.93C134.238 89.458 134.94 89.722 135.78 89.722C136.62 89.722 137.31 89.464 137.85 88.948C138.402 88.432 138.678 87.784 138.678 87.004C138.678 86.2 138.414 85.546 137.886 85.042C137.37 84.526 136.686 84.268 135.834 84.268C135.066 84.268 134.37 84.514 133.746 85.006C133.134 85.486 132.828 86.122 132.828 86.914C132.828 87.73 133.11 88.402 133.674 88.93ZM145.705 85.24C146.605 85.24 147.349 85.51 147.937 86.05C148.537 86.578 148.837 87.268 148.837 88.12C148.837 88.972 148.537 89.668 147.937 90.208C147.349 90.736 146.605 91 145.705 91H141.907V82H143.473V85.24H145.705ZM150.007 82H151.573V91H150.007V82ZM145.705 89.542C146.149 89.542 146.521 89.416 146.821 89.164C147.133 88.9 147.289 88.552 147.289 88.12C147.289 87.688 147.133 87.34 146.821 87.076C146.521 86.812 146.149 86.68 145.705 86.68H143.473V89.542H145.705ZM31.7073 100H33.3813L29.7093 109.558C29.3253 110.578 28.7853 111.352 28.0893 111.88C27.3933 112.42 26.6013 112.66 25.7133 112.6V111.142C26.8173 111.226 27.6273 110.626 28.1433 109.342L28.2873 109.018L24.3813 100H26.0373L29.1153 107.056L31.7073 100ZM39.3556 104.392C40.3516 104.8 40.8496 105.514 40.8496 106.534C40.8496 107.29 40.5496 107.932 39.9496 108.46C39.3496 108.976 38.4976 109.234 37.3936 109.234C35.5936 109.234 34.3876 108.514 33.7756 107.074L35.0896 106.3C35.4376 107.284 36.2116 107.776 37.4116 107.776C38.0116 107.776 38.4736 107.65 38.7976 107.398C39.1336 107.134 39.3016 106.798 39.3016 106.39C39.3016 106.03 39.1636 105.736 38.8876 105.508C38.6236 105.28 38.2636 105.166 37.8076 105.166H36.4936V103.744H37.4656C37.9216 103.744 38.2756 103.636 38.5276 103.42C38.7796 103.192 38.9056 102.886 38.9056 102.502C38.9056 102.118 38.7556 101.806 38.4556 101.566C38.1676 101.326 37.7656 101.206 37.2496 101.206C36.2416 101.206 35.5576 101.632 35.1976 102.484L33.9196 101.746C34.5556 100.426 35.6656 99.766 37.2496 99.766C38.2336 99.766 39.0076 100.018 39.5716 100.522C40.1476 101.026 40.4356 101.644 40.4356 102.376C40.4356 103.288 40.0756 103.96 39.3556 104.392ZM48.7744 100H50.3404V109H48.7744V105.238H44.1124V109H42.5464V100H44.1124V103.744H48.7744V100ZM60.1761 100H61.7421V109H60.1761V107.452C59.3961 108.64 58.2621 109.234 56.7741 109.234C55.5141 109.234 54.4401 108.778 53.5521 107.866C52.6641 106.942 52.2201 105.82 52.2201 104.5C52.2201 103.18 52.6641 102.064 53.5521 101.152C54.4401 100.228 55.5141 99.766 56.7741 99.766C58.2621 99.766 59.3961 100.36 60.1761 101.548V100ZM56.9721 107.722C57.8841 107.722 58.6461 107.416 59.2581 106.804C59.8701 106.18 60.1761 105.412 60.1761 104.5C60.1761 103.588 59.8701 102.826 59.2581 102.214C58.6461 101.59 57.8841 101.278 56.9721 101.278C56.0721 101.278 55.3161 101.59 54.7041 102.214C54.0921 102.826 53.7861 103.588 53.7861 104.5C53.7861 105.412 54.0921 106.18 54.7041 106.804C55.3161 107.416 56.0721 107.722 56.9721 107.722ZM70.8108 100V101.512H67.7508V109H66.1848V101.512H63.1068V100H70.8108ZM75.9811 103.24C76.8811 103.24 77.6251 103.51 78.2131 104.05C78.8131 104.578 79.1131 105.268 79.1131 106.12C79.1131 106.972 78.8131 107.668 78.2131 108.208C77.6251 108.736 76.8811 109 75.9811 109H72.1831V100H73.7491V103.24H75.9811ZM75.9811 107.542C76.4251 107.542 76.7971 107.416 77.0971 107.164C77.4091 106.9 77.5651 106.552 77.5651 106.12C77.5651 105.688 77.4091 105.34 77.0971 105.076C76.7971 104.812 76.4251 104.68 75.9811 104.68H73.7491V107.542H75.9811ZM89.3824 109.234C88.0504 109.234 86.9524 108.796 86.0884 107.92C85.2244 107.044 84.7924 105.916 84.7924 104.536C84.7924 103 85.0144 101.818 85.4584 100.99C85.9144 100.162 86.8384 99.412 88.2304 98.74C88.4824 98.62 88.8244 98.464 89.2564 98.272C89.7004 98.08 90.0244 97.936 90.2284 97.84C90.4324 97.732 90.6604 97.594 90.9124 97.426C91.1644 97.246 91.3504 97.054 91.4704 96.85C91.6024 96.634 91.6984 96.388 91.7584 96.112L93.0184 96.832C92.9824 97.024 92.9344 97.204 92.8744 97.372C92.8144 97.528 92.7244 97.684 92.6044 97.84C92.4964 97.984 92.4004 98.11 92.3164 98.218C92.2324 98.326 92.0884 98.446 91.8844 98.578C91.6924 98.698 91.5484 98.788 91.4524 98.848C91.3684 98.908 91.1944 98.998 90.9304 99.118C90.6784 99.238 90.5044 99.322 90.4084 99.37C90.3244 99.406 90.1264 99.49 89.8144 99.622C89.5024 99.742 89.3104 99.82 89.2384 99.856C88.4224 100.204 87.8224 100.558 87.4384 100.918C87.0664 101.278 86.7964 101.734 86.6284 102.286C87.0124 101.806 87.4924 101.452 88.0684 101.224C88.6444 100.996 89.2204 100.882 89.7964 100.882C90.9244 100.882 91.8784 101.266 92.6584 102.034C93.4504 102.802 93.8464 103.792 93.8464 105.004C93.8464 106.228 93.4264 107.242 92.5864 108.046C91.7464 108.838 90.6784 109.234 89.3824 109.234ZM87.2764 106.93C87.8404 107.458 88.5424 107.722 89.3824 107.722C90.2224 107.722 90.9124 107.464 91.4524 106.948C92.0044 106.432 92.2804 105.784 92.2804 105.004C92.2804 104.2 92.0164 103.546 91.4884 103.042C90.9724 102.526 90.2884 102.268 89.4364 102.268C88.6684 102.268 87.9724 102.514 87.3484 103.006C86.7364 103.486 86.4304 104.122 86.4304 104.914C86.4304 105.73 86.7124 106.402 87.2764 106.93ZM103.105 107.866C102.181 108.778 101.059 109.234 99.7393 109.234C98.4193 109.234 97.2973 108.778 96.3733 107.866C95.4613 106.954 95.0053 105.832 95.0053 104.5C95.0053 103.168 95.4613 102.046 96.3733 101.134C97.2973 100.222 98.4193 99.766 99.7393 99.766C101.059 99.766 102.181 100.222 103.105 101.134C104.029 102.046 104.491 103.168 104.491 104.5C104.491 105.832 104.029 106.954 103.105 107.866ZM99.7393 107.704C100.639 107.704 101.395 107.398 102.007 106.786C102.619 106.174 102.925 105.412 102.925 104.5C102.925 103.588 102.619 102.826 102.007 102.214C101.395 101.602 100.639 101.296 99.7393 101.296C98.8513 101.296 98.1013 101.602 97.4893 102.214C96.8773 102.826 96.5713 103.588 96.5713 104.5C96.5713 105.412 96.8773 106.174 97.4893 106.786C98.1013 107.398 98.8513 107.704 99.7393 107.704ZM113.527 100V109H111.961V101.512H108.415V105.184C108.415 106.66 108.115 107.692 107.515 108.28C106.927 108.856 106.093 109.096 105.013 109V107.524C105.625 107.608 106.081 107.476 106.381 107.128C106.693 106.768 106.849 106.108 106.849 105.148V100H113.527ZM119.698 103.24C120.598 103.24 121.342 103.51 121.93 104.05C122.53 104.578 122.83 105.268 122.83 106.12C122.83 106.972 122.53 107.668 121.93 108.208C121.342 108.736 120.598 109 119.698 109H115.9V100H117.466V103.24H119.698ZM119.698 107.542C120.142 107.542 120.514 107.416 120.814 107.164C121.126 106.9 121.282 106.552 121.282 106.12C121.282 105.688 121.126 105.34 120.814 105.076C120.514 104.812 120.142 104.68 119.698 104.68H117.466V107.542H119.698ZM135.277 100H136.843V109H124.513V100H126.079V107.506H129.895V100H131.461V107.506H135.277V100ZM140.342 105.22C140.498 106.024 140.864 106.648 141.44 107.092C142.028 107.536 142.748 107.758 143.6 107.758C144.788 107.758 145.652 107.32 146.192 106.444L147.524 107.2C146.648 108.556 145.328 109.234 143.564 109.234C142.136 109.234 140.972 108.79 140.072 107.902C139.184 107.002 138.74 105.868 138.74 104.5C138.74 103.144 139.178 102.016 140.054 101.116C140.93 100.216 142.064 99.766 143.456 99.766C144.776 99.766 145.85 100.234 146.678 101.17C147.518 102.094 147.938 103.21 147.938 104.518C147.938 104.746 147.92 104.98 147.884 105.22H140.342ZM143.456 101.242C142.616 101.242 141.92 101.482 141.368 101.962C140.816 102.43 140.474 103.06 140.342 103.852H146.354C146.222 103 145.886 102.352 145.346 101.908C144.806 101.464 144.176 101.242 143.456 101.242Z" fill="#E8EDFF"/>
<g clip-path="url(#clip0_2007_1173)">
<path fill-rule="evenodd" clip-rule="evenodd" d="M78.7786 178.581C80.2025 185.041 84.5935 189.666 90.146 192.517C96.3723 195.712 104.053 196.628 110.364 195.502C112.539 195.008 114.626 194.297 116.65 193.369C119.561 192.031 122.32 190.304 125.006 188.38C125.272 188.215 125.35 187.858 125.188 187.591C125.019 187.321 124.673 187.239 124.402 187.411C122.069 188.682 119.706 189.797 117.276 190.702C114.861 191.596 112.404 192.238 109.859 192.529C104.152 193.465 97.2418 192.52 91.6489 189.591C87.0542 187.183 83.3415 183.397 82.1018 178.084C83.4953 177.803 84.8603 177.424 86.1701 176.904C88.7028 175.895 91.0375 174.37 92.9944 172.034C94.37 170.393 95.853 167.738 96.1482 165.318C96.4106 163.162 95.81 161.182 93.9045 159.863C90.0959 157.234 86.4238 158.543 83.5511 161.709C80.3136 165.284 78.2195 171.335 78.3471 175.258C76.968 175.41 75.5781 175.492 74.2089 175.568C68.5477 175.865 62.8879 174.028 58.1839 170.462C53.8242 167.16 50.2805 162.386 48.3055 156.465C46.6436 151.72 46.7225 146.685 47.4864 142.137C48.0135 138.975 48.9223 136.07 49.8776 133.603C50.7465 131.359 51.5737 129.484 52.5268 128.219C52.5712 128.172 52.5747 128.092 52.5249 128.045C52.4751 127.998 52.3977 127.998 52.3532 128.046C51.0441 129.068 49.5545 130.625 48.2298 132.77C46.7485 135.17 45.5372 138.229 44.7396 141.563C43.5551 146.543 43.5157 152.175 45.1955 157.497C47.3871 164.108 51.3414 169.429 56.1962 173.118C61.5348 177.168 67.9676 179.251 74.3986 178.925C75.8324 178.841 77.3077 178.744 78.7786 178.581ZM81.6734 174.726C82.7812 174.481 83.8678 174.169 84.9131 173.751C86.9478 172.938 88.826 171.715 90.4007 169.834C91.2594 168.806 92.1963 167.259 92.6118 165.711C92.9234 164.55 93.0032 163.346 91.9863 162.65C89.776 161.118 87.7026 162.146 86.0343 163.982C83.4598 166.81 81.7106 171.509 81.6734 174.726Z" fill="#E8EDFF"/>
<path fill-rule="evenodd" clip-rule="evenodd" d="M123.907 187.335C123.217 188.188 122.525 189.03 121.838 189.893C121.034 190.9 120.226 191.913 119.47 192.955C117.526 195.623 115.769 198.353 113.965 201.075C113.77 201.309 113.797 201.662 114.032 201.862C114.268 202.062 114.617 202.036 114.813 201.802C116.807 199.921 118.846 198.14 120.847 196.217C121.695 195.401 122.531 194.578 123.327 193.704C125.105 191.753 126.703 189.653 128.277 187.566C128.467 187.311 128.73 186.842 128.83 186.416C128.942 185.941 128.903 185.489 128.754 185.111C128.609 184.753 128.334 184.311 127.7 184.045C127.417 183.927 126.781 183.798 125.888 183.802C122.961 183.829 115.829 184.778 114.356 184.941L111.482 185.455C111.32 185.498 111.075 185.521 110.854 185.667C110.558 185.853 110.22 186.068 110.089 186.294C109.99 186.466 110.235 186.561 110.106 186.532C110.007 186.511 110.139 186.698 110.162 186.628C110.241 186.373 110.3 186.818 110.389 186.723C110.622 186.483 110.4 186.986 110.645 186.963C110.737 186.952 110.596 187.062 110.693 187.072C110.826 187.094 110.569 187.183 110.708 187.254C110.791 187.303 110.575 187.306 110.666 187.386C110.731 187.451 110.478 187.341 110.566 187.456C110.647 187.567 110.463 187.396 110.463 187.396C110.463 187.396 110.496 187.516 110.342 187.235C110.393 187.191 110.396 187.111 110.347 187.064C110.301 187.01 110.223 187.011 110.172 187.055C109.496 186.609 110.073 187.034 109.774 186.989C109.664 186.971 109.789 187.08 109.714 187.092C109.314 187.162 109.905 187.266 109.747 187.494C109.685 187.586 109.871 187.502 109.831 187.616C109.76 187.812 110.024 187.49 110.09 187.775C110.125 187.922 110.181 187.617 110.359 187.857C110.485 188.039 110.318 187.943 110.701 188.082C110.975 188.185 111.541 188.019 111.794 188.056L114.626 187.956C115.802 187.877 120.619 187.454 123.907 187.335Z" fill="#E8EDFF"/>
</g>
<defs>
<clipPath id="clip0_2007_1173">
<rect width="85" height="74" fill="white" transform="translate(43.8936 128)"/>
</clipPath>
</defs>
</svg>
